<svg width="60" height="60" viewBox="0 0 60 60" fill="none" xmlns="http://www.w3.org/2000/svg">
<path d="M30 56.8749C28.425 56.8749 26.95 56.2751 25.85 55.1501L22.05 51.35C21.75 51.05 20.95 50.725 20.55 50.725H15.15C11.9 50.725 9.27498 48.0998 9.27498 44.8498V39.45C9.27498 39.05 8.94998 38.25 8.64998 37.95L4.85001 34.15C3.75001 33.05 3.125 31.5749 3.125 29.9999C3.125 28.4249 3.72501 26.9498 4.85001 25.8498L8.64998 22.0498C8.94998 21.7498 9.27498 20.9498 9.27498 20.5498V15.1501C9.27498 11.9001 11.9 9.27482 15.15 9.27482H20.55C20.95 9.27482 21.75 8.94982 22.05 8.64982L25.85 4.84977C28.05 2.64977 31.95 2.64977 34.15 4.84977L37.95 8.64982C38.25 8.94982 39.05 9.27482 39.45 9.27482H44.85C48.1 9.27482 50.725 11.9001 50.725 15.1501V20.5498C50.725 20.9498 51.05 21.7498 51.35 22.0498L55.15 25.8498C56.25 26.9498 56.875 28.4249 56.875 29.9999C56.875 31.5749 56.275 33.05 55.15 34.15L51.35 37.95C51.05 38.25 50.725 39.05 50.725 39.45V44.8498C50.725 48.0998 48.1 50.725 44.85 50.725H39.45C39.05 50.725 38.25 51.05 37.95 51.35L34.15 55.1501C33.05 56.2751 31.575 56.8749 30 56.8749ZM11.3 35.2999C12.3 36.2999 13.025 38.05 13.025 39.45V44.8498C13.025 46.0248 13.975 46.975 15.15 46.975H20.55C21.95 46.975 23.7 47.6999 24.7 48.6999L28.5 52.4999C29.3 53.2999 30.7 53.2999 31.5 52.4999L35.3 48.6999C36.3 47.6999 38.05 46.975 39.45 46.975H44.85C46.025 46.975 46.975 46.0248 46.975 44.8498V39.45C46.975 38.05 47.7 36.2999 48.7 35.2999L52.5 31.4999C52.9 31.0999 53.125 30.5749 53.125 29.9999C53.125 29.4249 52.9 28.9 52.5 28.5L48.7 24.6999C47.7 23.6999 46.975 21.9498 46.975 20.5498V15.1501C46.975 13.9751 46.025 13.0248 44.85 13.0248H39.45C38.05 13.0248 36.3 12.3 35.3 11.3L31.5 7.49991C30.7 6.69991 29.3 6.69991 28.5 7.49991L24.7 11.3C23.7 12.3 21.95 13.0248 20.55 13.0248H15.15C13.975 13.0248 13.025 13.9751 13.025 15.1501V20.5498C13.025 21.9498 12.3 23.6999 11.3 24.6999L7.5 28.5C7.1 28.9 6.875 29.4249 6.875 29.9999C6.875 30.5749 7.1 31.0999 7.5 31.4999L11.3 35.2999Z" fill="white"/>
<path d="M37.5006 40C36.1006 40 34.9756 38.875 34.9756 37.5C34.9756 36.125 36.1006 35 37.4756 35C38.8506 35 39.9756 36.125 39.9756 37.5C39.9756 38.875 38.8756 40 37.5006 40Z" fill="white"/>
<path d="M22.525 25C21.125 25 20 23.875 20 22.5C20 21.125 21.125 20 22.5 20C23.875 20 25 21.125 25 22.5C25 23.875 23.9 25 22.525 25Z" fill="white"/>
<path d="M22.4996 39.3749C22.0246 39.3749 21.5496 39.2 21.1746 38.825C20.4496 38.1 20.4496 36.8999 21.1746 36.1749L36.1746 21.1749C36.8996 20.4499 38.0996 20.4499 38.8246 21.1749C39.5496 21.8999 39.5496 23.1 38.8246 23.825L23.8246 38.825C23.4496 39.2 22.9746 39.3749 22.4996 39.3749Z" fill="white"/>
</svg>
