<svg width="43" height="43" viewBox="0 0 43 43" fill="none" xmlns="http://www.w3.org/2000/svg">
<path d="M34.1964 21.5704C34.23 21.2345 34.2636 20.8651 34.2636 20.4956C34.2636 19.32 34.0957 18.2115 33.7598 17.1703C37.0515 12.9381 38.6637 7.76548 38.2942 2.55925C38.2942 2.3913 38.1599 2.25695 37.9919 2.25695C31.8452 1.45082 25.6649 3.43255 20.9289 7.69831C17.6708 3.63408 13.1363 0.913403 8.13163 0.00650997C7.96369 -0.0270787 7.82934 0.0736872 7.76216 0.208042C5.41096 6.15323 5.91478 12.871 9.13929 18.6146C9.27365 18.8497 9.408 19.0513 9.54236 19.2528C4.9743 20.6635 1.68262 24.8957 1.68262 29.9004C1.68262 36.0135 6.65374 40.9846 12.7669 40.9846C15.8906 40.9846 18.7121 39.6747 20.7274 37.6258C22.7427 40.9511 26.3367 43 30.233 43C36.3461 43 41.3172 38.0288 41.3172 31.9157C41.3172 27.2133 38.3614 23.1827 34.1964 21.5704ZM37.656 2.82796C37.9248 7.63113 36.4469 12.4343 33.4911 16.3642C32.6849 14.3153 31.2742 12.5687 29.4604 11.3259L33.9277 6.92577C34.0621 6.79141 34.0621 6.58988 33.9277 6.45553C33.7934 6.32117 33.5918 6.32117 33.4575 6.45553L28.8894 10.99C27.21 9.98233 25.2618 9.41133 23.1793 9.41133C22.877 9.41133 22.5412 9.41133 22.2389 9.44492C21.9702 9.00826 21.6679 8.6052 21.332 8.20214C25.8664 4.10432 31.778 2.15618 37.656 2.82796ZM31.6101 17.9428C31.5765 17.7749 31.375 17.6741 31.207 17.7077C31.0391 17.7413 30.9383 17.9428 30.9719 18.1108C31.207 19.0177 31.3078 19.9246 31.2406 20.8315C30.9047 20.7979 30.5688 20.7979 30.233 20.7979C27.2436 20.7979 24.3549 22.0071 22.2725 24.1567C20.3579 20.9658 16.8647 18.8161 12.9012 18.7826C13.7073 13.7778 18.0739 10.0495 23.1793 10.0495C28.923 10.0495 33.5918 14.7183 33.5918 20.462C33.5918 20.7307 33.5918 21.033 33.5582 21.3017C33.0544 21.1673 32.4834 21.033 31.9124 20.9322C31.9796 19.9246 31.8788 18.9169 31.6101 17.9428ZM8.26599 0.74546C13.573 1.75312 18.3426 4.94404 21.4663 9.54568C19.1487 9.91516 17.0326 10.99 15.4204 12.5687L11.2218 5.17916C11.121 5.01122 10.9195 4.97763 10.7515 5.0448C10.5836 5.14557 10.55 5.3471 10.6172 5.51505L14.9165 13.0725C13.5058 14.6512 12.5317 16.5993 12.1959 18.8161C11.4905 18.8497 10.8187 18.9505 10.1805 19.1184C10.0126 18.8497 9.87824 18.581 9.7103 18.3123C6.65374 12.8037 6.11632 6.42185 8.26599 0.74546ZM12.7669 40.2792C7.02321 40.2792 2.35439 35.644 2.35439 29.9003C2.35439 24.1567 7.02321 19.4542 12.7669 19.4542C18.5105 19.4542 23.1793 24.1231 23.1793 29.8667C23.1793 35.6104 18.5105 40.2792 12.7669 40.2792ZM30.233 42.3282C26.5046 42.3282 23.045 40.3129 21.1976 37.0884C22.8435 35.1402 23.8511 32.6547 23.8511 29.9004C23.8511 28.053 23.4145 26.34 22.6083 24.7949C24.5901 22.6788 27.3443 21.4696 30.233 21.4696C35.9766 21.4696 40.6454 26.1385 40.6454 31.9157C40.6454 37.6593 35.9766 42.3282 30.233 42.3282Z" fill="#2388FF"/>
<path d="M11.6248 26.34C11.4904 26.2056 11.2889 26.1721 11.1545 26.3064L8.97125 28.0866L7.39258 25.7354C7.29182 25.5675 7.09029 25.5339 6.92234 25.6682C6.7544 25.769 6.72081 25.9705 6.85516 26.1385L8.50101 28.4897L6.28416 30.3035C6.1498 30.4378 6.11621 30.6393 6.25057 30.7737C6.28416 30.8409 6.38492 30.9081 6.48569 30.9081C6.55287 30.9081 6.62004 30.8745 6.68722 30.8409L8.87048 29.0607L10.4827 31.3783C10.5499 31.4791 10.6507 31.5127 10.7514 31.5127C10.8186 31.5127 10.8858 31.4791 10.953 31.4455C11.1209 31.3447 11.1545 31.1432 11.0202 30.9752L9.37431 28.624L11.5912 26.8102C11.7255 26.6759 11.7591 26.4744 11.6248 26.34Z" fill="#2388FF"/>
<path d="M33.4576 40.4136L31.5766 39.3387L33.4576 38.2639C33.6255 38.1631 33.6927 37.9616 33.5919 37.7936C33.4912 37.6257 33.2896 37.5921 33.1217 37.6593L30.9048 38.9357L28.688 37.6593C28.5201 37.5585 28.3185 37.6257 28.2178 37.7936C28.117 37.9616 28.1842 38.1631 28.3521 38.2639L30.2331 39.3387L28.3521 40.4136C28.1842 40.5143 28.1506 40.7159 28.2178 40.8838C28.2849 40.9846 28.3857 41.0517 28.5201 41.0517C28.5872 41.0517 28.6208 41.0517 28.688 41.0181L30.9048 39.7418L33.1217 41.0181C33.1889 41.0517 33.2225 41.0517 33.2896 41.0517C33.3904 41.0517 33.5248 40.9846 33.5919 40.8838C33.6927 40.7159 33.6255 40.5143 33.4576 40.4136Z" fill="#2388FF"/>
<path d="M25.732 13.1733L24.0525 12.4344L25.732 11.6954C25.8999 11.6282 25.9671 11.4267 25.8999 11.2587C25.8327 11.0908 25.6312 11.0236 25.4633 11.0908L23.2128 12.0649L20.9624 11.0908C20.7945 11.0236 20.5929 11.0908 20.5257 11.2587C20.4586 11.4267 20.5257 11.6282 20.6937 11.6954L22.3731 12.4344L20.6937 13.1733C20.5257 13.2405 20.4586 13.442 20.5257 13.61C20.5929 13.7443 20.6937 13.8115 20.828 13.8115C20.8616 13.8115 20.9288 13.8115 20.9624 13.7779L23.2128 12.8038L25.4633 13.7779C25.4969 13.8115 25.564 13.8115 25.5976 13.8115C25.732 13.8115 25.8663 13.7443 25.8999 13.61C25.9671 13.442 25.8999 13.2405 25.732 13.1733Z" fill="#2388FF"/>
<path d="M18.645 23.4515C17.9061 22.7797 17.0664 22.2423 16.1595 21.8728C15.9915 21.8056 15.79 21.8728 15.7228 22.0407C15.6221 22.1751 15.7228 22.3766 15.8908 22.4438C16.7305 22.8133 17.503 23.2835 18.2084 23.9217C18.2756 23.9889 18.3427 24.0225 18.4435 24.0225C18.5443 24.0225 18.6114 23.9889 18.6786 23.9217C18.813 23.7873 18.7794 23.5858 18.645 23.4515Z" fill="#2388FF"/>
<path d="M20.1565 25.2652C20.0557 25.0973 19.8542 25.0637 19.6863 25.1645C19.5183 25.2652 19.4847 25.4668 19.5855 25.6347C20.4252 26.8775 20.8283 28.3554 20.8283 29.9005C20.8283 30.4379 20.7611 30.9753 20.6603 31.5127C20.6267 31.6807 20.7275 31.8822 20.929 31.9158C20.9626 31.9158 20.9626 31.9158 20.9962 31.9158C21.1642 31.9158 21.2985 31.815 21.3321 31.6471C21.4329 31.0761 21.5 30.5051 21.5 29.9005C21.5 28.2545 21.0298 26.6424 20.1565 25.2652Z" fill="#2388FF"/>
<path d="M36.1109 25.4667C35.3719 24.7949 34.5322 24.2575 33.6253 23.888C33.4573 23.8209 33.2558 23.888 33.1886 24.056C33.0879 24.1903 33.1886 24.3919 33.3566 24.4591C34.1963 24.8285 34.9688 25.2988 35.6742 25.937C35.7414 26.0041 35.8086 26.0377 35.9093 26.0377C36.0101 26.0377 36.0773 26.0041 36.1444 25.937C36.2788 25.8026 36.2452 25.6011 36.1109 25.4667Z" fill="#2388FF"/>
<path d="M37.6223 27.2805C37.5216 27.1125 37.32 27.079 37.1521 27.1797C36.9841 27.2805 36.9505 27.482 37.0513 27.65C37.891 28.8927 38.2941 30.3706 38.2941 31.9157C38.2941 32.4531 38.2269 32.9906 38.1261 33.528C38.0926 33.6959 38.1933 33.8975 38.3949 33.931C38.4284 33.931 38.4284 33.931 38.462 33.931C38.63 33.931 38.7643 33.8303 38.7979 33.6623C38.8987 33.0913 38.9659 32.5203 38.9659 31.9157C38.9659 30.2698 38.4956 28.6576 37.6223 27.2805Z" fill="#2388FF"/>
<path d="M30.6699 15.7261C30.1325 14.8863 29.4943 14.1474 28.7218 13.5092C28.5874 13.4084 28.3523 13.4084 28.2515 13.5428C28.1507 13.6771 28.1507 13.9123 28.2851 14.013C28.9905 14.584 29.5951 15.2894 30.0989 16.0619C30.1661 16.1627 30.2668 16.2299 30.4012 16.2299C30.4684 16.2299 30.5355 16.2299 30.5691 16.1963C30.7371 16.0955 30.7707 15.894 30.6699 15.7261Z" fill="#2388FF"/>
</svg>
